# xmcd
#
# Track frame offsets:
#	150
#	21279
#	40851
#	57696
#	77094
#	100346
#	119343
#	139349
#	151205
#	170108
#	192622
#	206937
#	226747
#	242335
#	267390
#	279572
#	296191
#
# Disc length: 4202 seconds
#
# Revision: 1
# Processed by: cddbd v1.5.2PL0 Copyright (c) Steve Scherf et al.
# Submitted via: EasyCDDAExtractor 11.0.2.1
#
DISCID=07106811
DTITLE=Various Artist - [Blues Revue Blues Music Sampler (April-May 2007)]
DYEAR=2007
DGENRE=Blues
TTITLE0=Jonny Lang - Turn Around
TTITLE1=Randy McAllister - The Girl Ain't Right
TTITLE2=Eric Bibb - Shine On
TTITLE3=The Beat Daddys - Big Thighs
TTITLE4=Josh Smith - The Way You Do
TTITLE5=Otis Taylor - Little Betty
TTITLE6=Jony James Blues Band - Strange and Funny Thing
TTITLE7=Eric Hughes Band - Muddy Waters Records
TTITLE8=The Billy Gibson Band - Mississippi
TTITLE9=Washboard Jo and the Soapsuds - My Delta Sugar Daddy
TTITLE10=James Day and the Fish Fry - Money Smarts and Charms
TTITLE11=Bob Margolin - In North Carolina
TTITLE12=Hep Cat Boo Daddies - Don't Be A Fool
TTITLE13=Tad Rabinson - Long Way Home
TTITLE14=Purple Cat - In The Mood
TTITLE15=Sir Oliver Mally - New Year's Eve
TTITLE16=Kelly Bell Band - F.B.I.
EXTD=
EXTT0=
EXTT1=
EXTT2=
EXTT3=
EXTT4=
EXTT5=
EXTT6=
EXTT7=
EXTT8=
EXTT9=
EXTT10=
EXTT11=
EXTT12=
EXTT13=
EXTT14=
EXTT15=
EXTT16=
PLAYORDER=
